<?xml version="1.0" encoding="utf-8"?>
<!-- Generator: Adobe Illustrator 22.1.0, SVG Export Plug-In . SVG Version: 6.00 Build 0)  -->
<svg version="1.2" baseProfile="tiny" id="Layer_1" xmlns="http://www.w3.org/2000/svg" xmlns:xlink="http://www.w3.org/1999/xlink"
	 x="0px" y="0px" viewBox="0 0 1920 1080" xml:space="preserve">
<path fill="#606060" d="M-104.7,774.7c-0.1,9.5,5.8,41.5,148,82.1c225.2,64.2,369.5,29.3,598.3,37.3c207,7.3,162.7,38.5,439.1,56
	c237.1,15,355.6,22.6,475.2-13.7c68.5-20.8,125.1-50.5,216.4-43.5c66.2,5.1,110.6,26.4,138.1,0c33.8-32.4,87.3-115.7,84.6-124.4
	c0,0,18.6-57-17.4-91.2c-101-95.9-530.3-18.8-668,6.6c-377.3,69.6-329.5,78.7-445.3,87.1c-221,16.1-371.5,27-553.6-28.6
	c-77.9-23.8-194.8-69.9-323.4-29.9C-26.8,716.9-104.4,741.1-104.7,774.7z"/>
<path fill="#1A4E79" d="M921.8,549.6l51.3,8.3l76.7-0.3l-48,25.1c0,0-73.3-13.3-80,0C915.1,596,921.8,549.6,921.8,549.6z"/>
<path fill="#EABA00" d="M1313.5,361.3c-6.5,0.8-14.9,4.4-20.1,9.9c-4.6,4.9-8.7,14.3-6.2,19.3c-11.5-9.2-11.2-24.5-4.5-37.5
	c4.5-8.8,23-26.7,54.6-23.6c20.3,2,34.7,12.9,44.1,25.4c12.3,16.4,12.4,38.9,6.4,57.2c-3.9,11.9-11.2,23-21.9,30
	c-15.4,10.2-35,10.5-52.4,2.9c-18.3-7.9-30.3-16.6-29.1-38.1c0.2-3.6,1.1-6.4,2.3-10.4c0.6,7.3,4.8,14.2,11.2,18.7
	c7.5,5.3,17.3,8.8,26.5,8.4c19.8-0.9,29.3-24.3,24.7-41C1344.6,366.9,1329.2,359.3,1313.5,361.3z"/>
<ellipse transform="matrix(0.865 -0.5017 0.5017 0.865 -148.9631 148.489)" fill="#FFFFFF" cx="201.5" cy="351.1" rx="1.5" ry="1.6"/>
<ellipse fill="#FFFFFF" cx="1391.7" cy="434.1" rx="1.7" ry="2"/>
<ellipse fill="#FFFFFF" cx="-18.4" cy="555" rx="1.7" ry="2"/>
<path fill="#27676D" d="M1183.3,505.5c-34.1-7.6-60.6-16.6-78.1-23.2c-40.3-15.2-47.8-23.4-93.6-39.5c-27.7-9.7-46.4-16.2-73-18.9
	c-14.6-1.5-17.1-0.4-49.8-2.6c-46.6-3.1-54.9-6.2-60.1-8.6c-9.6-4.4-26-14.3-40.4-38.6l-19.7,5.1l-33.5-38.6l-6.9-22.6L669,338.9
	l-94.4,67.8c-44,11.6-80.2,10.3-102.7,7.8c-49.4-5.6-85.2-23.6-115.4-38.7c-31.7-15.9-56.1-32.7-73-45.5l-7.6-20l-69.7,32
	l-93.7,69.9l-82.3-5.6l-43.8,27.4l-3.1,236l1351.9-33.3l467,55.8l222.7-8.8l21.1-152.6l-55.8-45.3c-8.7,12.9-26.4,34.8-55.8,47
	c-25.9,10.8-49.6,9.4-70.4,6.9c-87.4-10.4-104.6-37.1-181.1-50.7c-62.6-11.1-73.3,2.8-127.9-13.7c-42.3-12.8-74.3-32.7-95.3-48.1
	l-88.4,4.8l-78.5,41.3l-65.8,33.6L1183.3,505.5z"/>
<path fill="#007050" d="M1390.5,211.5c18.9-34.1,85.5-62,145.9-46.3c14.1,3.7,8.5,4.7,110,55c21,10.4,44.9,22,57.6,12.2
	c10.2-7.8,3.8-22,14-34.9c13.5-17,45.7-18.9,66.4-11.4c46.3,17,66.2,93.2,53.3,151.1c-1.6,7.1-19.5,82.2-76.9,97.8
	c-4.7,1.3-35.8,9.7-64.6-4.4c-18-8.8-20.5-19.2-40.2-24.5c-18.3-4.9-42.1-2.9-48,8.7c-4,7.7,3.3,13,0,21c-6.5,15.5-43,16.6-69,11.4
	c-5-1-22.3-4.8-48-20.1c-30.5-18.2-64.1-38.1-76.9-74.2c-11.1-31.6,4.3-45.5-13.1-73.4c-7.5-12-16.6-19.5-18.3-34.9
	C1380.8,228.9,1387.9,216.1,1390.5,211.5z"/>
<polygon fill="#606060" points="691.7,360.1 728.3,318 735.1,340.6 724.4,372 "/>
<path fill="#606060" d="M788.4,374.1c-8.7,15.4-16.7,34.9-20.1,58c-0.5,3.4-0.9,6.8-1.2,10c0,0,0.7,3.8,2.9,6.9
	c4.1,5.8,24.7,3.8,50.3-5.2c11-4.2,23-8.2,35.9-11.8c11-3.1,22.1-4.8,32.9-5.9c22.6-2.4,45.5-1.3,67.8,3.2L995,437
	c-2-1.4-41.9-16.2-66.8-22.5c-47.8-12-81.4,10.5-110.1-7.8c-6.6-4.2-6.6-4.2-21-19.9L788.4,374.1z"/>
<path fill="#606060" d="M1227.1,507.1h61.6c3.4-6.7,7.2-12.3,11.1-16.8c32.1-37.6,88.8-33.6,101.2-32.5l-29.7-25.6L1227.1,507.1z"/>
<polygon fill="#606060" points="1469.8,438.8 1450.6,454.9 1432.1,439.3 1460.4,427.2 "/>
<path fill="#606060" d="M1461.5,432.2"/>
<path fill="#1A4E79" d="M728.7,568.8c-2.6,24.4,62.1,67.3,120.1,85.6c146.9,46.5,296.1-50.3,292.9-85.6
	c-2.3-25.8-86.3-25.8-241.2-25.8C805.6,543,731.4,543.5,728.7,568.8z"/>
<polygon fill="#606060" points="926.9,548.6 993,530.2 1026.3,542.3 1018.8,556.8 996.3,568.9 926.9,567.2 "/>
<polygon fill="#606060" points="1193.6,554.3 1190.9,590.1 1164.9,601.2 1129.5,594.3 1110.3,583 1110.3,573 1103.1,561 
	1140.1,568.3 "/>
<polygon fill="#70727E" points="1145,572 1193.6,554.3 1178.7,548.1 1126.5,549.2 1120.9,560.1 1103.1,560.1 "/>
<polygon fill="#70727E" points="1026.3,542.3 1011.8,537 993,530.2 954.7,542.1 926.9,548.6 931.3,553 "/>
<polygon fill="#1A4E79" points="1028.1,560.1 945.8,560.1 918.8,564.6 956.6,583.2 1031,583.2 "/>
<path fill="#007050" d="M112.6,775.8c3.5,37.3,334.4,57.2,1710.9-11.4c58.6-12.3,124.4-31.4,125.8-58.5
	c2.6-51.8-230.3-110.3-399.1-133.6c-211.4-29.2-383.1-11.4-636.7,29.7C547.2,661.3,108.5,732.3,112.6,775.8z"/>
<path fill="#008355" d="M-81.1,700.1c171.7-145.8,315.2-160,496.7-175c130.4-10.8,223.7-3,262,0.9c27.7,2.8,118.1,12.7,234.9,44.5
	c99,27,164,55.2,203.5,70.7c254.6,100.3,486.5,82.6,486.5,94.3c-0.3,45.5-1086.7,89.1-1236.3,95.1c-174.2,7-447.1,16.2-469.8-65.9
	C-109.5,742.9-101,717.1-81.1,700.1z"/>
<path fill="#604861" d="M1486.4,747.8c3.7,4.9,15.6,0.3,40.2-5.2c15.6-3.5,28.4-5.7,36.7-7c-7.1-6.8-18.1-18.3-28.8-34.5
	c-69.4-104.9-16.2-242.7-7.9-263.3c9.4-23.3,26.8-59,59.4-96.9l-20.1-14.8l-21.8,30.8l-29.7-15.1l-31.4-7.9l6.1,13.1l37.6,27.9
	l-29.7,5.2l12.2,10.5c-3.9,9.6-8.1,20.5-12.2,32.6c-40.5,119.2-34.7,236.8-14,268.7c2.4,3.7,9.2,12.6,9.6,25.3
	C1493.1,733.8,1482.4,742.6,1486.4,747.8z"/>
<path fill="#008355" d="M1738,184.9c34.4-1.8,57.6,21.4,66.3,52.8c3.3,11.8,6.7,30.4,8.5,63.5c2.7,49.2-26.1,83.7-36.6,96.4
	c-12,14.4-26.2,31.5-51.4,40.4c-35.1,12.4-69.3,1.2-91.4-6.1c-8.9-2.9-24.6-8.2-42-19.6c-22.6-14.7-35.1-20.2-38-29.1
	c-8.7-26.1,33.3-76.9,83.2-88.2c30.3-6.8,50.2,4,68.1-12.2c9.9-9,9.2-14.5,5.4-28.6c-3.6-13.6-67.2-22.9-56.8-30.7
	C1675.1,207.2,1699.3,186.9,1738,184.9z"/>
<path fill="#008355" d="M1487.2,350c-3.7,2.3-45.4,22.3-28.7,45.6c16.6,23.3-27.9-14.6-35.5-24.2c-20.1-25.8-29.2-36.7-35.3-66.8
	c-6.9-34.4,14.2-61.8,21-71.1c3.1-4.3,39.9-55,106.8-60c31.1-2.3,52.2,6.5,92.2,23.1c23.4,9.8,34.1,18.8,45.6,27
	c11.5,8.2,21.8,17.7,22.7,32.5c1.1,19.2-91.2,41.2-105.7,43.3c-24.4,3.7-27.5-0.9-40.1,5.1C1506.6,315.9,1513.5,333.7,1487.2,350z"
	/>
</svg>
