<?xml version="1.0" encoding="utf-8"?>
<!-- Generator: Adobe Illustrator 22.1.0, SVG Export Plug-In . SVG Version: 6.00 Build 0)  -->
<svg version="1.2" baseProfile="tiny" id="Layer_1" xmlns="http://www.w3.org/2000/svg" xmlns:xlink="http://www.w3.org/1999/xlink"
	 x="0px" y="0px" viewBox="0 0 1920 1080" xml:space="preserve">
<path fill="#27676D" d="M1167.9,567.3c-34.1-7.6-60.6-16.6-78.1-23.2c-40.3-15.2-47.8-23.4-93.6-39.5c-27.7-9.7-46.4-16.2-73-18.9
	c-14.6-1.5-17.1-0.4-49.8-2.6c-46.6-3.1-54.9-6.2-60.1-8.6c-9.6-4.4-26-14.3-40.4-38.6l-19.7,5.1l-33.5-38.6l-6.9-22.6l-59.2,20.9
	l-94.4,67.8c-44,11.6-80.2,10.3-102.7,7.8c-49.4-5.6-85.2-23.6-115.4-38.7c-31.7-15.9-56.1-32.7-73-45.5l-7.6-20l-69.7,32
	l-93.7,69.9l-82.3-5.6L-28.9,496L-32,732l1351.9-33.3l467,55.8l222.7-8.8l21.1-152.6l-55.8-45.3c-8.7,12.9-26.4,34.8-55.8,47
	c-25.9,10.8-49.6,9.4-70.4,6.9c-87.4-10.4-104.6-37.1-181.1-50.7c-62.6-11.1-73.3,2.8-127.9-13.7c-42.3-12.8-74.3-32.7-95.3-48.1
	l-88.4,4.8l-78.5,41.3l-65.8,33.6L1167.9,567.3z"/>
<path fill="#007050" d="M686.4,616.3c59.5,3.5,116.7,36.9,146.4,48.2c33.2,12.7,170-41.5,188.9-20.2c33.2,37.5,11.6,44,24.8,74.9
	c49.9,116.6,429.1,113.4,481.4,7.1c8.6-17.5,10.4-49.9-4.8-66.7c-17.8-19.7-48-6.2-93-33.4c-8.6-5.2-13.3-9.2-24.5-14
	c-17.5-7.4-34-9.6-54.8-10.3c-32.7-1-41.6,2.9-63.6,3.1c-31.9,0.4-60.5-9.5-117.8-29.4c-27.9-9.7-26.8-10.6-60.5-22.8
	c-48.4-17.6-74.8-27.1-103.2-33.4c-48.2-10.6-89.1-8.7-129.4-3.1c-29,4-56.8,14.4-81.5,30.2L686.4,616.3z"/>
<polygon fill="#606060" points="914.8,466.5 921,466.5 921,469.7 926.6,469.7 926.6,466.5 932.4,466.5 932.4,469.7 937.8,469.7 
	937.8,466.5 943.9,466.5 943.9,469.7 948.4,469.7 948.4,466.5 953.7,466.5 953.7,469.7 958.5,469.7 958.5,466.5 963.9,466.5 
	963.5,477.9 910.3,478.3 910.3,467 "/>
<rect x="881.8" y="440.9" fill="#604861" width="16" height="14.4"/>
<rect x="881.8" y="453.8" fill="#604861" width="34.7" height="21.1"/>
<polygon fill="#606060" points="969.6,478.7 970.7,479.9 975.9,474.6 974.8,473.5 "/>
<path fill="#606060" d="M-119.5,838c-0.1,9.5,5.8,41.5,148,82.1c225.2,64.2,369.5,29.3,598.3,37.3c207,7.3,162.7,38.5,439.1,56
	c237.1,15,355.6,22.6,475.2-13.7c68.5-20.8,125.1-50.5,216.4-43.5c66.2,5.1,110.6,26.4,138.1,0c33.8-32.4,87.3-115.7,84.6-124.4
	c0,0,18.6-57-17.4-91.2c-101-95.9-530.3-18.8-668,6.6c-377.3,69.6-329.5,78.7-445.3,87.1c-221,16.1-371.5,27-553.6-28.6
	c-77.9-23.8-194.8-69.9-323.4-29.9C-41.6,780.2-119.1,804.3-119.5,838z"/>
<path fill="#1A4E79" d="M907,612.8l51.3,8.3l76.7-0.3l-48,25.1c0,0-73.3-13.3-80,0C900.3,659.2,907,612.8,907,612.8z"/>
<path fill="#EABA00" d="M1295.6,421.6c-6.5,0.8-14.9,4.4-20.1,9.9c-4.6,4.9-8.7,14.3-6.2,19.3c-11.5-9.2-11.2-24.5-4.5-37.5
	c4.5-8.8,23-26.7,54.6-23.6c20.3,2,34.7,12.9,44.1,25.4c12.3,16.4,12.4,38.9,6.4,57.2c-3.9,11.9-11.2,23-21.9,30
	c-15.4,10.2-37.2,12.4-54.3,4.2c-11.4-5.5-19.3-10.7-23.5-20c-5.2-11.4,1.5-26.2,6.1-30.6c1.5,7.8,4.8,11.8,11.6,16.3
	c3.7,2.5,17.8,4.2,26.1-0.2c11.4-6.1,13.4-18.2,11.6-30.2C1323.2,427.5,1311.3,419.6,1295.6,421.6z"/>
<ellipse transform="matrix(0.865 -0.5017 0.5017 0.865 -182.6964 149.6093)" fill="#FFFFFF" cx="186.7" cy="414.4" rx="1.5" ry="1.6"/>
<ellipse fill="#FFFFFF" cx="1376.9" cy="497.4" rx="1.7" ry="2"/>
<ellipse fill="#FFFFFF" cx="-33.1" cy="618.3" rx="1.7" ry="2"/>
<path fill="#007050" d="M1375.7,274.8c18.9-34.1,85.5-62,145.9-46.3c14.1,3.7,8.5,4.7,110,55c21,10.4,44.9,22,57.6,12.2
	c10.2-7.8,3.8-22,14-34.9c13.5-17,45.7-18.9,66.4-11.4c46.3,17,66.2,93.2,53.3,151.1c-1.6,7.1-19.5,82.2-76.9,97.8
	c-4.7,1.3-35.8,9.7-64.6-4.4c-18-8.8-20.5-19.2-40.2-24.5c-18.3-4.9-42.1-2.9-48,8.7c-4,7.7,3.3,13,0,21c-6.5,15.5-43,16.6-69,11.4
	c-5-1-22.3-4.8-48-20.1c-30.5-18.2-64.1-38.1-76.9-74.2c-11.1-31.6,4.3-45.5-13.1-73.4c-7.5-12-16.6-19.5-18.3-34.9
	C1366,292.2,1373.1,279.4,1375.7,274.8z"/>
<polygon fill="#606060" points="676.9,423.4 713.5,381.3 720.3,403.9 709.6,435.2 "/>
<path fill="#606060" d="M773.6,437.4c-8.7,15.4-16.7,34.9-20.1,58c-0.5,3.4-0.9,6.8-1.2,10c0,0,0.7,3.8,2.9,6.9
	c4.1,5.8,24.7,3.8,50.3-5.2c11-4.2,23-8.2,35.9-11.8c11-3.1,22.1-4.8,32.9-5.9c22.6-2.4,45.5-1.3,67.8,3.2l38.1,7.6
	c-2-1.4-41.9-16.2-66.8-22.5c-47.8-12-81.4,10.5-110.1-7.8c-6.6-4.2-6.6-4.2-21-19.9L773.6,437.4z"/>
<path fill="#606060" d="M1212.3,570.3h61.6c3.4-6.7,7.2-12.3,11.1-16.8c32.1-37.6,88.8-33.6,101.2-32.5l-29.7-25.6L1212.3,570.3z"/>
<polygon fill="#606060" points="1455.1,502.1 1435.8,518.2 1417.3,502.5 1445.6,490.4 "/>
<path fill="#606060" d="M1446.7,495.4"/>
<path fill="#1A4E79" d="M713.9,632c-2.6,24.4,62.1,67.3,120.1,85.6c146.9,46.5,296.1-50.3,292.9-85.6
	c-2.3-25.8-86.3-25.8-241.2-25.8C790.8,606.3,716.6,606.8,713.9,632z"/>
<polygon fill="#606060" points="912.1,611.9 978.3,593.4 1011.5,605.6 1004.1,620 981.5,632.2 912.1,630.5 "/>
<polygon fill="#606060" points="1178.8,617.5 1176.1,653.4 1150.2,664.5 1114.7,657.5 1095.5,646.2 1095.5,636.2 1088.3,624.3 
	1125.4,631.5 "/>
<polygon fill="#70727E" points="1130.2,635.3 1178.8,617.5 1163.9,611.4 1111.7,612.4 1106.1,623.3 1088.3,623.3 "/>
<polygon fill="#1A4E79" points="1013.3,623.3 931,623.3 904,627.9 941.8,646.5 1016.2,646.5 "/>
<path fill="#007050" d="M97.8,839c3.5,37.3,334.4,57.2,1710.9-11.4c58.6-12.3,124.4-31.4,125.8-58.5
	c2.6-51.8-230.3-110.3-399.1-133.6c-211.4-29.2-383.1-11.4-636.7,29.7C532.4,724.5,93.8,795.6,97.8,839z"/>
<path fill="#008355" d="M-95.8,763.3c171.7-145.8,315.2-160,496.7-175c130.4-10.8,223.7-3,262,0.9c27.7,2.8,118.1,12.7,234.9,44.5
	c99,27,164,55.2,203.5,70.7c254.6,100.3,486.5,82.6,486.5,94.3C1587.5,844.4,501.1,888,351.5,894c-174.2,7-447.1,16.2-469.8-65.9
	C-124.3,806.1-115.8,780.3-95.8,763.3z"/>
<path fill="#604861" d="M1471.6,811.1c3.7,4.9,15.6,0.3,40.2-5.2c15.6-3.5,28.4-5.7,36.7-7c-7.1-6.8-18.1-18.3-28.8-34.5
	c-69.4-104.9-16.2-242.7-7.9-263.3c9.4-23.3,26.8-59,59.4-96.9l-20.1-14.8l-21.8,30.8l-29.7-15.1l-31.4-7.9l6.1,13.1l37.6,27.9
	l-29.7,5.2l12.2,10.5c-3.9,9.6-8.1,20.5-12.2,32.6c-40.5,119.2-34.7,236.8-14,268.7c2.4,3.7,9.2,12.6,9.6,25.3
	C1478.3,797.1,1467.7,805.9,1471.6,811.1z"/>
<path fill="#008355" d="M1723.2,248.2c34.4-1.8,57.6,21.4,66.3,52.8c3.3,11.8,6.7,30.4,8.5,63.5c2.7,49.2-26.1,83.7-36.6,96.4
	c-12,14.4-26.2,31.5-51.4,40.4c-35.1,12.4-69.3,1.2-91.4-6.1c-8.9-2.9-24.6-8.2-42-19.6c-22.6-14.7-35.1-20.2-38-29.1
	c-8.7-26.1,33.3-76.9,83.2-88.2c30.3-6.8,50.2,4,68.1-12.2c9.9-9,9.2-14.5,5.4-28.6c-3.6-13.6-67.2-22.9-56.8-30.7
	C1660.3,270.5,1684.5,250.2,1723.2,248.2z"/>
<path fill="#008355" d="M1472.4,413.2c-3.7,2.3-45.4,22.3-28.7,45.6c16.6,23.3-27.9-14.6-35.5-24.2c-20.1-25.8-29.2-36.7-35.3-66.8
	c-6.9-34.4,14.2-61.8,21-71.1c3.1-4.3,39.9-55,106.8-60c31.1-2.3,52.2,6.5,92.2,23.1c23.4,9.8,34.1,18.8,45.6,27
	c11.5,8.2,21.8,17.7,22.7,32.5c1.1,19.2-91.2,41.2-105.7,43.3c-24.4,3.7-27.5-0.9-40.1,5.1C1491.8,379.1,1498.7,397,1472.4,413.2z"
	/>
<path fill="#008355" d="M678.7,858.5"/>
<polygon fill="#70727E" points="1011.5,605.6 997,600.3 978.3,593.4 939.9,605.4 912.1,611.9 916.5,616.3 "/>
<path fill="#B4B0A3" d="M871.1,995.2c-30.2,0.2-49.6,1.8-65.7,2.8c-60.4,3.6-111.7-2-214.4-8.4c-16.3-1-49.6-3.3-90.7-15.9
	c-61.3-18.7-90.9-45.2-118-60.1C281.4,858,196.3,947-2.3,951c-393.6,7.9-171.2-125.1-173.6-151.4c-4.8-52.5,431.1-48.5,643.2-11.9
	c96.7,16.7,133.2,0.4,189.4,22.7c36.4,14.4,77.6,38.1,141.8,39.7c29.1,0.7,23.6-4.1,63.5-5.7c100.3-4,118.1,27,201.9,19.3
	c30.3-2.8,48.8-8.7,55.6,1.1c10.4,15.2-16.8,52.9-37.4,73.7c-51.7,52.2-121.5,58.5-128.2,59C929.2,999.3,925.8,994.7,871.1,995.2z"
	/>
<path fill="#929789" d="M1039.6,892.9c-3.8-18.2-62.6-21.9-111.8-25c-54.7-3.4-94.6,0.3-111,1.5c-109.7,7.9-119-28.7-253.7-36.8
	c-78.4-4.7-72.1,7.9-219.8,7.4c-34.7-0.1-65.8-0.9-115.4,1.5c-48.2,2.3-63.4,5.2-101.5,5.9c-51.5,0.9-83.5-3.5-113.2-5.9
	c-69.1-5.6-233.2-18.8-264,41.2c-20.1,39.2,22.9,98.1,26.5,102.9c126.6,169.7,498.3,6.9,899.2,22.8c13.3,0.5,113.9,4.7,231.6-36
	C964,952.4,1044.3,915.4,1039.6,892.9z"/>
<path fill="#1A4E79" d="M-499.3,993.3c49-147.5,576.3-69.5,926.1-149.5c137.3-31.4,125.7,17.4,485.2,32.9
	c34.6,1.5,334.3,22.2,451,37.2c84.5,10.8,108.2,18,224.4,37.5c200.4,33.7,300.7,50.6,366,46.3c113.3-7.3,136.9-33.9,270.9-33.1
	c87.2,0.5,187.7,12.5,190.1,37.5c2,20.9-66.6,28.2-141.5,94.9c-53.5,47.6-78.8,97.4-93,121.4c-79.3,133.3-259.7,207.4-361.9,249.3
	c-278.4,114.3-580,52.3-1097.9,57.4c-538.4,5.3-680.5,77-903.8-64C-363.3,1347.8-544.5,1129.4-499.3,993.3z"/>
<path fill="#187990" d="M698.4,1325.3c2.6-17.3,28.9-22.7,39.4-59.5c7.1-24.9,2-46.8,1-50.9c-10-40.7-39.9-44.6-42.3-77.8
	c-1.3-19.1,8.5-18.7,9.6-46.1c1.2-29.2-9.8-32.6-10.6-63.4c-0.6-22.7,5.4-21,8.6-60.5c2.9-35.5-0.8-50.5-1.9-54.7
	c-4.7-17.8-13-31.1-19.2-39.4l-23.3-17.3c6.8-0.9,17.8-1.2,28.6,4.1c32,15.8,27.4,64.6,46.6,109.2c10.8,25,33.3,58.7,86.4,89.3
	c-18-14.6-29.3-14.4-35.5-12.5c-25.9,7.9-31.3,66.3-25,105.6c9.2,56.8,45.9,93.1,49.9,97c80.2,77.1,194.3,29.5,220.9,83.5
	c15.2,30.9-6.6,77.9-34.6,100.8C906.2,1507.5,690.7,1377.7,698.4,1325.3z"/>
<path fill="#187990" d="M160.6,879.7C4.4,867-74.6,877.8-106.4,894.1c-180.9,92.7-166.2,457.5,2.7,513.7
	c127.7,42.5,336.5-68.4,325.7-98c-6.6-18.1-95.1-4.9-190.8-53.8c-22.5-11.5-40.6-20.7-55.9-36.5c-71.4-74.2-14.6-226.1,94-261.2
	c22.9-7.4,71.3,30,102.4-1c3.5-3.5-18.6-29.5-31.9-49.4C127.1,888.9,167,880.2,160.6,879.7z"/>
<path fill="#187990" d="M564,920c55.1-23.3,102.9-21.7,178.6-19.2c36.3,1.2,82.2,5,134.4,15.4c24.1,4.8,56.2,11.2,96,25
	c78.6,27.2,89.9,49.1,124.8,51.9c33.7,2.7,82.2-19.7,146-101.8c-185-4.2-376.7-11-574.3-36c-22.3-2.8-44.6-5.6-66.8-8.9
	c-70.7-10.4-74.4-12.7-102.5-10.2c-19.8,1.8-55,75.6-65,128.1c-5.5,28.7,11.8,39.5,32.7,85.5c37.6,83.1,64.5,142.6,46.1,180.5
	c-31.4,64.7-169.1,14.6-213.2,87.4c-26.2,43.3-9.6,114.1,24,130.6c44,21.6,115.6-50.3,145-79.7c27-27.1,60-60.1,73.9-114.3
	c13.5-52.5,2.2-97.8-4.8-124.8c-22.4-86-67.3-108.1-54.7-148.9C493.7,949.8,527.5,935.5,564,920z"/>
<path fill="#187990" d="M599.5,908c0,0-99.2,19.9-106.9,66.7c-4.2,25.5,69.4,70.4,144.8,88.1c0.4-2.1-48.7-22.3-53.7-23.9
	c-36.8-11.6-74.4-49.3-72.6-62.6c1.3-9,14.9-20.2,26.8-32.8C551.6,929.2,599.5,908,599.5,908z"/>
<path fill="#187990" d="M839.3,1077.3c20.4,2.6,51.9,6.6,86.5-7c45.5-17.8,57.1-50.5,74.6-44.7c21.1,6.9,29.9,62.7,9.9,103.4
	c-9.7,19.7-32.4,48.7-55.7,45.7c-21.3-2.7-18.4-29.1-48.7-53.7c-31-25.2-51.6-12-115.3-40.8"/>
<path fill="#187990" d="M186.6,910.4c9.1,6.1,24.8,16.7,40.3,31.1c27.4,25.5,25.9,36.5,39.8,43.7c13.5,7.1,37.6,8.6,83.5-20.9
	c-1.7-7.9-5.8-31.2,6-56.4c16.3-34.9,59.4-56.5,51.5-56c-135,7.8-220.9,26.2-220.9,26.2C186.7,882.7,157.3,890.7,186.6,910.4z"/>
<path fill="#007050" d="M1162.4,931.1c102.8-138.5,263-31.7,552.4-157.7c79-34.4,146.4-76.9,231.4-55.6c10.2,2.6,83.7,22.2,127,91.9
	c45.5,73.2,36,166.6,4.5,225.7c-66.2,124.5-250.1,135.7-443.5,147.5c-121.4,7.4-464.5,28.3-511.6-105.5
	C1100.5,1014.5,1153.2,943.5,1162.4,931.1z"/>
<path fill="#008355" d="M1249.4,1123.6c96.7-36.5,220-73.6,365.8-96.1c160.3-24.7,300.7-24.5,410.5-16.5l112.6,330.9l-61.5,360
	h-920.5L1249.4,1123.6z"/>
<path fill="#008355" d="M983.1,1032.1c-2.2-1.8,5.1-13.8,6.6-16.2c37.7-61.9,61.4-101.6,111.4-134.6c14.8-9.8,53.2-33.3,129.3-47.6
	c118.7-22.4,228.1-3.4,310.8,22.7c-103.6-25.4-179-10-221.1,3.6c-59.3,19-43.4,63.5-107.8,82.2c-56.5,16.3-84,25.2-144.4,41.5
	C1011.6,998.8,987.6,1035.8,983.1,1032.1z"/>
<path fill="#007050" d="M980.2,1099.7c0-21.5-3.4-73.5,10.6-86.4c56.9-52.1,132.4-37.9,216.8-96.4c32.2-22.3,212.9,34.9,299.6,32.7
	c217-5.4,325.5-8.1,327.8-8.5c70.7-10.7,124.3-25.3,175.4,6.2c33.8,20.8,63.7,60.1,66.2,103.9c3.9,69-60.8,137.9-127.7,162.3
	c-135.3,49.5-214.8-106.1-443.9-106.2c-75.6,0-242.9-74.7-403.2-58.5C982.4,1061,980.2,1099.7,980.2,1099.7z"/>
<polygon fill="#606060" points="938.9,1079 1004.8,1043.1 1133.6,1017.6 1337.7,1115.9 1417.3,1216.8 1405.6,1353.6 1066,1353.6 
	950.5,1223.3 "/>
<polygon fill="#70727E" points="999.9,1043.7 1139.3,1143.7 1300.8,1149.5 1417.3,1216.8 1337.7,1115.9 1150.4,1009.9 "/>
<path fill="#604861" d="M442.7,495.2c2.5-0.9,11-4.2,16.7-13.5c5.5-9.1,4.8-18,4.5-20.6c8.4-2.5,11.2-1.3,12.3,0
	c3.4,4.2-6.4,14.2-9,33.5c-0.6,4.2-0.8,14.9-0.8,16.9c2.5-1,4.1-2.5,9.5-5.6c8.4-4.9,8-6.5,12.1-15.5c0,0-5.6-8.7-3.7-18.4l17,2.2
	c-2.2,3.6,6.9,18.6,6.9,18.6s-17.3,31.8-12.6,37.1c2,2.2,5.9,2.3,8.4,1.3c5.4-2.2,8.1-11.1,6.4-22.5l11.6-4.4c1,2,2.2,5.2,2.6,9.1
	c1.6,16.5-14.3,22.7-25.8,44.2c-13.2,24.7-10,49.9-9,56c1.3,8,3.4,14.4,5.2,18.7l-9,2.9l-10.9-6.1c2-14.7,3.8-44-11.6-74
	c-6.9-13.5-23.9-46.8-54.1-48.9l-7.1-15.7v-19.1l12.2,5.1l-2.6,13.9l9.7,8.9L442.7,495.2z"/>
<path fill="#007050" d="M-75.3,664.4c15.6-26.5,57.2-63.3,367.8-68.7c34.5-0.6,62.8-0.7,81.4-0.6c-7.9,2.5-19.8,6-34.4,9.8
	c-36.9,9.7-42.2,8.3-49.4,14.9c-17,15.6-3.8,37.5-18.1,57.9c-11.7,16.7-33,19.8-62.1,23.5C76.3,718.3,34.6,723.2,9.1,753
	C-0.2,763.8,3.4,774.3-6,779c-21.9,10.7-69.7-19.7-79-59.1C-91.4,692.5-77.5,668.1-75.3,664.4z"/>
<polygon fill="#606060" points="1172.3,598.5 1249.4,598.5 1211.4,552.3 "/>
<polygon fill="#755261" points="1240.3,593.4 1245.5,594.7 1245.5,625.4 1240.3,641 "/>
<path fill="#604861" d="M1241.3,641c0-15.9,0-31.7,0-47.6h-70.1l1,57.4c11-2.9,23.4-5.5,37.3-7.3C1221,642,1231.6,641.3,1241.3,641z
	"/>
<polygon fill="#604861" points="1168.1,595.5 1241.5,595.5 1203.4,549.3 "/>
<polygon fill="#755261" points="1203.4,549.3 1211.4,552.3 1249.4,598.5 1241.5,595.5 "/>
<path fill="#70727E" d="M1223.4,655.8l14.5-8.9l-4.3-2c-0.5-0.2-0.9-0.3-1.4-0.3l-13.8-0.2c-0.3,0-0.6,0.1-0.9,0.2l-5,2.1
	c-0.9,0.4-1.5,1.3-1.5,2.3v0.9L1223.4,655.8z"/>
<rect x="1180.2" y="614.5" fill="#543A47" width="24" height="14.6"/>
<rect x="1181" y="615.4" fill="#453B6D" width="22.4" height="12.8"/>
<rect x="1181" y="625.6" fill="#4F3D6D" width="22.4" height="2.6"/>
<rect x="1181" y="615.4" fill="#4A3D5E" width="10.2" height="10.2"/>
<path fill="#008355" d="M1272.8,650.5c6.7-2.5,14.3-4.3,22.7-4.5c0.7,0,1.4,0,2.1,0c-6.7-1.3-13.9-2.4-21.5-3.3
	c-11.3-1.3-21.9-1.8-31.4-1.8L1272.8,650.5z"/>
<path fill="#755261" d="M1375.2,799.4c18.3-13.9,41.6-36.3,53.1-69.6c7.1-20.6,4.5-30.2,7.2-71.3c2.2-33.2,5-72.8,17.8-118.6
	c0,0,12.6-45,45.1-89.6c1.1-1.6,4.3-6,5-5.6c1.3,0.7-7.6,18.5-8.9,21.2c-8.4,17-39.1,95.2-28.9,177c7.6,61.3,33,83.2,21.7,140.8
	c-2.2,11.2-5.1,20.3-7.2,26.2l-4.5,3.2l-62.4-2.6L1375.2,799.4z"/>
<polygon fill="#755261" points="1167.5,595.5 1241.8,595.5 1240.3,593.7 1168.9,593.7 "/>
<path fill="#543A47" d="M1211.9,642.2c3.5-0.6,7.6-1,12.1-1c2.2,0,5.2,0.1,7.2,0.2v-26.8h-19.3V642.2z"/>
<path fill="#755261" d="M1212.7,641.2c3.2-0.5,6.9-0.9,11-1c2,0,4.7,0.1,6.5,0.2v-25h-17.5V641.2z"/>
<circle fill="#543A47" cx="1228.3" cy="630.1" r="0.9"/>
<path fill="#755261" d="M494.9,632.3c-4-12.8-6.1-28.5-5.6-35.2c0.4-5.8-0.8-9.4,4-26.6c2.6-9.2,14.6-22.2,22.1-34.9
	c3-5,8-10.2,8.2-10.1c0.1,0.1,0.5,1.4-0.1,1.3c-0.8-0.1-4-3.5-5-3.8c-1.5-0.4-5,7.5-6.3,10.4c-5.9,12.6-12,15.1-18.2,24
	c-8.1,11.6-9.1,23.6-10.6,40.7c-0.8,9.4-1.1,20.5,2.6,37.2L494.9,632.3z"/>
<path fill="#755261" d="M463.8,478.2c-0.4,1.1-0.4,2.1-0.4,2.3c0.1,2.1-1.3,9.3-6.4,28.2l9.5-4.5c0-0.8,0-2.4,0.1-4.4
	c0.9-14,6.9-26.3,6.9-26.3l0,0c0,0-3.3-0.1-6,1.2C466.9,474.9,464.7,476,463.8,478.2z"/>
<path fill="#007050" d="M395.2,506.9c26.6,14.3,36.2,1.1,50.9-19.6c10.9-15.3-9-14.5-9-14.5c2.6-1.5,13.8-15.4,19.8-5.9
	c16.2,25.6,66.6,16.7,68.3,27c1.2,7.3-23.9,12.9-23.2,21.9c0.7,8.5,24.2,17.7,44.4,12.2c22.7-6.1,41.1-30.7,36.1-45.1
	c-2.4-7-16.9-12.4-45.7-23.2c-15.8-5.9-23.6-7.9-34.8-15.5c-7.5-5.1-10.5-8.5-20-17.4c-22.5-21.1-33.7-31.6-42.5-34.8
	c-24.4-8.8-51.1,8.7-60.5,14.8c-10.9,7.1-19.5,18.2-23.2,35c-2.1,9.6-0.8,25.3,10.8,41.1C375.7,495.4,390,504.1,395.2,506.9z"/>
<path fill="#008355" d="M446.6,422.4c-19.9,5.4-15.8,35.7-39.3,43.8c-19,6.6-46-4.9-50.9-21.2c-6.1-20.4,22.3-47.5,49.6-55.4
	c19.6-5.7,36.9-0.9,56,4.5c13.3,3.7,40.2-2.7,73.4,14.1c21.6,10.9,14.7,28.1,16.7,29.6c12.2,8.9,33.3,24.3,36.1,48.9
	c0.4,3.2,2.8,25.5-12.2,38c-13.9,11.6-37.8,10.8-57.3-3.9c0.9,0.6,14.3,9.8,28.3,3.9c12.7-5.4,15.7-39,6.4-48.3
	c-16.7-16.7-52.2,1.3-67.6-16.6C467.5,438.7,467.5,416.7,446.6,422.4z"/>
<path fill="#007050" d="M448.3,426.9c2.7-5.9,7.4-13.5,23.7-15.6c0.1,0,0.3,0,0.4-0.1c23.3-3.1,47-1.4,69.7,4.7l4.6,1.3
	c-0.9-1-2.2-2.4-3.8-4c-24.2-23-69.4-23.4-101.5-6c-7.9,4.3-31.3,17-35.4,40.3c-0.4,2.2,2.3,27.4,11.4,34.1
	c11.8,8.8,55.2,5.2,58.6-9.7C478.7,460.5,444.3,435.7,448.3,426.9z"/>
<path fill="#755261" d="M482.7,533.3c3.6,1.9,9.1,0.2,12.8-3.3c0.5,0.5,1.5,1.2,2.6,1.6c2.5,0.4,3.7,0.2,4.6-0.1l3-1.3l-1.4,1.2
	c-1.1,0.9-5.2,3.5-10.1,3.3l-9.3,0.3L482.7,533.3z"/>
<path fill="#755261" d="M470,564.7l2.1,13.5l-4.4-13.5c-4.5-9.4-9.5-21.3-19.6-33.2c-7.3-8.6-13.3-13.6-14.7-15
	c-2.6-2.6-6.4-4.6-8.2-6c3.4,1.8,8.4,4.1,12,6.8c10.1,7.6,16.8,16.2,21.1,23l9.8,15.3L470,564.7z"/>
<rect x="874.1" y="470" fill="#604861" width="6.7" height="60.4"/>
<polygon fill="#70727E" points="869.7,471.4 884.6,470 884.6,462.8 869.7,463.3 "/>
<polygon fill="#755261" points="867.3,464.1 876.9,454.6 886.2,463.4 "/>
<rect x="960.3" y="454.3" fill="#604861" width="16" height="21.1"/>
<path fill="#755261" d="M967.4,439.4c-1.1,4.3-3.4,10-8.5,14.1c-0.5,0.4-1,0.8-1.5,1.1v2h21.6V455c-0.4-0.4-2.8-2.5-4.2-4.6
	c-2.9-4.3-3.6-5.5-5.5-10.6L967.4,439.4z"/>
<polygon fill="#606060" points="974.1,492.5 974.1,485.6 977.1,485.6 976.9,525.2 974.2,525.5 974.2,497.6 971.5,497.7 971.5,492.3 
	"/>
<polygon fill="#604861" points="883.6,474.4 883.6,471.9 889.3,471.9 889.3,474.4 894.6,474.4 894.6,471.9 900.5,471.9 900.5,474.4 
	904.8,474.4 904.8,471.9 910,471.9 910,474.4 914.7,474.4 914.7,471.9 919.9,471.9 919.9,474.4 925.3,474.4 925.3,471.9 931,471.9 
	931,474.4 936.3,474.4 936.3,471.9 942.1,471.9 942.1,474.4 946.5,474.4 946.5,471.9 951.6,471.9 951.6,474.4 956.3,474.4 
	956.3,471.9 961.6,471.9 961.6,474.4 966.2,474.4 966.2,471.9 971.5,471.9 971.5,474.2 971.5,520.3 884.1,520.3 "/>
<path fill="#755261" d="M878.5,488.3c3.1,0,6.3,0,9.4,0.4v2.1h-5.3h-4.1V488.3z"/>
<polygon fill="#604861" points="937.1,536.2 916,535.6 916,503.7 937.1,504 "/>
<rect x="892.4" y="479.6" fill="#543A47" width="15.8" height="11.9"/>
<rect x="943.1" y="511.6" fill="#543A47" width="7" height="7"/>
<rect x="905" y="511.6" fill="#543A47" width="7" height="7"/>
<path fill="#543A47" d="M919.7,535.1l0-20.6c0-0.2-0.1-0.5,0-0.9c0.4-2.4,3.9-4.2,6.8-4.3c4.1-0.1,6.7,3.4,7,3.7v1.2v21.1
	L919.7,535.1z"/>
<rect x="912.1" y="464" fill="#543A47" width="3.3" height="7"/>
<rect x="912.4" y="464.3" fill="#755261" width="2.7" height="6.3"/>
<rect x="961" y="466.4" fill="#543A47" width="2.3" height="5.5"/>
<rect x="961.2" y="466.5" fill="#755261" width="2" height="5.3"/>
<path fill="#755261" d="M891.9,427c1.8,3.9,4.3,8,8,12c0.4,0.5,0.8,0.9,1.3,1.3v1.7h-21.6v-2c0.5-0.3,1-0.7,1.5-1.1
	c4.6-3.9,5.1-9.2,5.1-12.1L891.9,427z"/>
<rect x="892.9" y="480" fill="#453B6D" width="14.8" height="11.1"/>
<path fill="#604861" d="M959.8,452.8c3.4-2.8,5.2-6.4,7.2-11.9c0.2-0.5,0.4-1,0.4-1.5l1.2,0.8c0.5,2.9,1.3,9.7-2.6,13.7
	c-0.3,0.3-0.5,0.5-0.8,0.7l-7.7,0L959.8,452.8z"/>
<path fill="#604861" d="M886.2,427.6c-0.1,1.9-0.3,2.8-0.5,3.7c-1.2,4.6-4.2,7.4-5.4,8.2c-0.3,0.2-0.5,0.3-0.7,0.4l2.9,0.1
	c0.9-0.3,3.6-1.4,5.1-4.3c0.4-0.7,2.2-4.1,0.6-7c-0.6-1-1.4-1.7-2-2L886.2,427.6z"/>
<polygon fill="#604861" points="876.9,454.6 877.5,461 867.3,464.1 "/>
<path fill="#755261" d="M920.6,534.3l0-19.4c0-0.2,0-0.5,0-0.8c0.3-2.3,3.4-4,5.9-4c3.6-0.1,5.8,3.2,6.1,3.5v1.1v19.8L920.6,534.3z"
	/>
<rect x="943.7" y="512" fill="#755261" width="6" height="5.9"/>
<rect x="905.5" y="512.1" fill="#755261" width="6" height="5.9"/>
<polygon fill="#70727E" points="869.6,535.3 869.6,513.8 879.1,517.1 903.6,517.7 916.6,517.9 916.6,535.7 "/>
<path fill="#70727E" d="M937.1,517.6l34.8-0.2c3.6-0.6,14.8-3.5,16.7-3.5l-0.9,22.4h-50.7V517.6z"/>
<polygon fill="#543A47" points="885.5,490.9 882,489.9 878.5,488.3 878.5,490.9 "/>
<path fill="#606060" d="M884.3,534.4l0-11.5c0-0.1,0-0.3,0-0.5c0.2-1.3,2.3-2.4,4-2.4c2.4-0.1,3.9,1.9,4.1,2.1v0.7v11.8L884.3,534.4
	z"/>
<path fill="#606060" d="M893.8,534.6l0-11.5c0-0.1,0-0.3,0-0.5c0.2-1.3,2.3-2.4,4-2.4c2.4-0.1,3.9,1.9,4.1,2.1v0.7v11.8L893.8,534.6
	z"/>
<path fill="#606060" d="M903,534.6l0-11.5c0-0.1,0-0.3,0-0.5c0.2-1.3,2.3-2.4,4-2.4c2.4-0.1,3.9,1.9,4.1,2.1v0.7v11.8L903,534.6z"/>
<path fill="#606060" d="M945,534.8l0-11.5c0-0.1,0-0.3,0-0.5c0.2-1.3,2.3-2.4,4-2.4c2.4-0.1,3.9,1.9,4.1,2.1v0.7V535L945,534.8z"/>
<path fill="#606060" d="M954.6,535.1l0-11.5c0-0.1,0-0.3,0-0.5c0.2-1.3,2.3-2.4,4-2.4c2.4-0.1,3.9,1.9,4.1,2.1v0.7v11.8L954.6,535.1
	z"/>
<path fill="#606060" d="M963.8,535.1l0-11.5c0-0.1,0-0.3,0-0.5c0.2-1.3,2.3-2.4,4-2.4c2.4-0.1,3.9,1.9,4.1,2.1v0.7v11.8L963.8,535.1
	z"/>
<path fill="#70727E" d="M883.8,535.1l0-11.5c0-0.1,0-0.3,0-0.5c0.2-1.3,2.3-2.4,4-2.4c2.4-0.1,3.9,1.9,4.1,2.1v0.7v11.8L883.8,535.1
	z"/>
<path fill="#70727E" d="M893.3,535.3l0-11.5c0-0.1,0-0.3,0-0.5c0.2-1.3,2.3-2.4,4-2.4c2.4-0.1,3.9,1.9,4.1,2.1v0.7v11.8L893.3,535.3
	z"/>
<path fill="#70727E" d="M902.5,535.3l0-11.5c0-0.1,0-0.3,0-0.5c0.2-1.3,2.3-2.4,4-2.4c2.4-0.1,3.9,1.9,4.1,2.1v0.7v11.8L902.5,535.3
	z"/>
<path fill="#70727E" d="M944.5,535.5l0-11.5c0-0.1,0-0.3,0-0.5c0.2-1.3,2.3-2.4,4-2.4c2.4-0.1,3.9,1.9,4.1,2.1v0.7v11.8L944.5,535.5
	z"/>
<path fill="#70727E" d="M954,535.7l0-11.5c0-0.1,0-0.3,0-0.5c0.2-1.3,2.3-2.4,4-2.4c2.4-0.1,3.9,1.9,4.1,2.1v0.7v11.8L954,535.7z"/>
<path fill="#70727E" d="M963.3,535.7l0-11.5c0-0.1,0-0.3,0-0.5c0.2-1.3,2.3-2.4,4-2.4c2.4-0.1,3.9,1.9,4.1,2.1v0.7v11.8L963.3,535.7
	z"/>
<path fill="#606060" d="M974,520c0.4-0.3,8.8-3.3,10.3-2.8c0.9,0.3,1.1,2.7,1.3,4.9c0.2,2.4-0.1,5.4-0.6,12.2c0,0.5,0,0.8,0,1
	l0.6,0.2l0.6-19c-1.4,0.2-2.8,0.4-4.3,0.8c-3,0.7-5.6,1.5-7.9,2.5L974,520z"/>
<path fill="#606060" d="M869.9,514.5"/>
<polygon fill="#606060" points="878.6,517.5 878.6,535 877.5,535 877.5,517.1 "/>
<polygon fill="#606060" points="870.4,514.4 870.4,535.2 869.9,535.2 869.9,514.1 "/>
<polygon fill="#606060" points="869.1,535.3 917.9,535.2 917.9,536.3 869.1,536.3 "/>
<polygon fill="#606060" points="936.4,535.9 985.2,535.8 985.2,536.9 936.4,536.9 "/>
<ellipse fill="#70727E" cx="927" cy="538.5" rx="8.3" ry="1.5"/>
<rect x="845.8" y="494.7" fill="#755261" width="2.6" height="34.9"/>
<polygon fill="#70727E" points="855.9,511 857.1,509.6 854,506.7 857.1,504.1 855.6,502.7 852.8,504.8 838.1,491.5 851,506.3 
	848.6,509 849.7,510.6 852.7,507.6 "/>
<polygon fill="#70727E" points="838.9,510.4 837.6,509 840.8,506 837.6,503.4 839.1,502 842,504.2 856.7,490.9 843.7,505.6 
	846.2,508.3 845,509.9 842,507 "/>
<path fill="#008355" d="M1257.9,615.2"/>
<path fill="#008355" d="M1326.5,619.8c18-7.1,43-12.9,68.3-4.6c1.8,0.6,3.6,1.3,5.4,2l-8.8-7.3c-13.4-5-38.6-12.3-70.5-9.6
	c-29.7,2.5-52,12.6-64.3,19.3L1326.5,619.8z"/>
<path fill="#008355" d="M1016.8,524.7c8.2,2.4,21.7,5.3,37.1,11.8c31.1,13.2,30.6,18.3,52.3,24.9c13.8,4.2,19.8,3.9,50.1,12.3
	c5.9,1.6,10.7,3,13.9,4h4.6c-25.8-9.1-51.8-19-77.2-29.1c-33.3-13.1-80.8-28.4-108.9-32.5C988.9,517.2,1016.6,523.8,1016.8,524.7z"
	/>
<rect x="893.8" y="445.1" fill="#543A47" width="2.2" height="2.4"/>
<rect x="893.9" y="445.1" fill="#453B6D" width="2" height="2.2"/>
<path fill="#755261" d="M880.9,453.5c6.1-0.1,12.1-0.6,18.2-0.4c6.2,0.2,12.6,0.6,18.4-0.4c0,0.2,0,0.5,0,0.8c0.1,1.2,0.7,2,1,2.4
	h-0.5c-4.1-0.7-13.8-1.1-18.2-1.1c-6.2,0-12.6,1.1-18.8,1.1C880.9,455.1,880.9,454.3,880.9,453.5z"/>
<path fill="#604861" d="M891.3,453.4c-3.4,0.1-6.2,0.3-10.4,0.4c0,0.7-0.1,1.7-0.1,2.3c6.2,0.4,14.5-1.3,20.8-1.3l-1.3-0.3
	C897.4,453.7,894.4,453.3,891.3,453.4z"/>
</svg>
